<?xml version="1.0" encoding="UTF-8" standalone="no"?>
<!DOCTYPE svg PUBLIC "-//W3C//DTD SVG 1.1//EN"
 "http://www.w3.org/Graphics/SVG/1.1/DTD/svg11.dtd">
<!-- Generated by graphviz version 2.40.1 (20161225.0304)
 -->
<!-- Title: finite_state_machine Pages: 1 -->
<svg width="310pt" height="223pt"
 viewBox="0.00 0.00 310.00 223.00" xmlns="http://www.w3.org/2000/svg" xmlns:xlink="http://www.w3.org/1999/xlink">
<g id="graph0" class="graph" transform="scale(1 1) rotate(0) translate(4 219)">
<title>finite_state_machine</title>
<polygon fill="#ffffff" stroke="transparent" points="-4,4 -4,-219 306,-219 306,4 -4,4"/>
<!-- 4 -->
<g id="node1" class="node">
<title>4</title>
<ellipse fill="none" stroke="#000000" cx="18" cy="-140" rx="18" ry="18"/>
<text text-anchor="middle" x="18" y="-136.3" font-family="Times,serif" font-size="14.00" fill="#000000">4</text>
</g>
<!-- 5 -->
<g id="node2" class="node">
<title>5</title>
<ellipse fill="none" stroke="#000000" cx="193" cy="-197" rx="18" ry="18"/>
<text text-anchor="middle" x="193" y="-193.3" font-family="Times,serif" font-size="14.00" fill="#000000">5</text>
</g>
<!-- 4&#45;&gt;5 -->
<g id="edge1" class="edge">
<title>4&#45;&gt;5</title>
<path fill="none" stroke="#000000" d="M33.8877,-149.0113C40.0692,-152.3507 47.2721,-156.0412 54,-159 90.2886,-174.959 99.5288,-179.4331 138,-189 146.6543,-191.1521 156.2284,-192.793 164.9301,-194.0113"/>
<polygon fill="#000000" stroke="#000000" points="164.6289,-197.5011 174.9912,-195.2937 165.514,-190.5573 164.6289,-197.5011"/>
<text text-anchor="middle" x="102" y="-187.8" font-family="Times,serif" font-size="14.00" fill="#000000">4!</text>
</g>
<!-- 3 -->
<g id="node3" class="node">
<title>3</title>
<ellipse fill="none" stroke="#000000" cx="102" cy="-140" rx="18" ry="18"/>
<text text-anchor="middle" x="102" y="-136.3" font-family="Times,serif" font-size="14.00" fill="#000000">3</text>
</g>
<!-- 4&#45;&gt;3 -->
<g id="edge2" class="edge">
<title>4&#45;&gt;3</title>
<path fill="none" stroke="#000000" d="M36.2267,-140C47.1242,-140 61.2054,-140 73.5413,-140"/>
<polygon fill="#000000" stroke="#000000" points="73.8089,-143.5001 83.8088,-140 73.8088,-136.5001 73.8089,-143.5001"/>
<text text-anchor="middle" x="60" y="-143.8" font-family="Times,serif" font-size="14.00" fill="#000000">7!</text>
</g>
<!-- 3&#45;&gt;5 -->
<g id="edge3" class="edge">
<title>3&#45;&gt;5</title>
<path fill="none" stroke="#000000" d="M117.4479,-149.4651C128.4921,-156.2527 143.6936,-165.6371 157,-174 160.9207,-176.4641 165.0704,-179.0944 169.1042,-181.6633"/>
<polygon fill="#000000" stroke="#000000" points="167.3041,-184.6665 177.6156,-187.1004 171.0725,-178.7674 167.3041,-184.6665"/>
<text text-anchor="middle" x="147.5" y="-177.8" font-family="Times,serif" font-size="14.00" fill="#000000">20!</text>
</g>
<!-- 2 -->
<g id="node4" class="node">
<title>2</title>
<ellipse fill="none" stroke="#000000" cx="193" cy="-77" rx="18" ry="18"/>
<text text-anchor="middle" x="193" y="-73.3" font-family="Times,serif" font-size="14.00" fill="#000000">2</text>
</g>
<!-- 3&#45;&gt;2 -->
<g id="edge4" class="edge">
<title>3&#45;&gt;2</title>
<path fill="none" stroke="#000000" d="M115.7058,-128.2923C122.2969,-122.8367 130.4009,-116.3782 138,-111 147.7215,-104.1197 158.8316,-97.1027 168.5096,-91.2439"/>
<polygon fill="#000000" stroke="#000000" points="170.4637,-94.1537 177.2577,-86.0239 166.8768,-88.1425 170.4637,-94.1537"/>
<text text-anchor="middle" x="147.5" y="-114.8" font-family="Times,serif" font-size="14.00" fill="#000000">9!</text>
</g>
<!-- 2&#45;&gt;4 -->
<g id="edge5" class="edge">
<title>2&#45;&gt;4</title>
<path fill="none" stroke="#000000" d="M174.6682,-78.4185C152.5203,-80.6049 114.4425,-85.8928 84,-98 68.5639,-104.1391 52.8117,-113.9995 40.5693,-122.6238"/>
<polygon fill="#000000" stroke="#000000" points="38.3598,-119.9029 32.3298,-128.6143 42.4762,-125.5646 38.3598,-119.9029"/>
<text text-anchor="middle" x="102" y="-101.8" font-family="Times,serif" font-size="14.00" fill="#000000">14!</text>
</g>
<!-- 1 -->
<g id="node5" class="node">
<title>1</title>
<ellipse fill="none" stroke="#000000" cx="284" cy="-78" rx="18" ry="18"/>
<text text-anchor="middle" x="284" y="-74.3" font-family="Times,serif" font-size="14.00" fill="#000000">1</text>
</g>
<!-- 2&#45;&gt;1 -->
<g id="edge6" class="edge">
<title>2&#45;&gt;1</title>
<path fill="none" stroke="#000000" d="M208.5849,-67.8008C214.7293,-64.6734 221.9859,-61.5728 229,-60 237.2398,-58.1523 239.7815,-58.0599 248,-60 251.7574,-60.887 255.5698,-62.2296 259.2384,-63.7897"/>
<polygon fill="#000000" stroke="#000000" points="257.9515,-67.0553 268.4772,-68.2643 261.0028,-60.7553 257.9515,-67.0553"/>
<text text-anchor="middle" x="238.5" y="-63.8" font-family="Times,serif" font-size="14.00" fill="#000000">4!</text>
</g>
<!-- 1&#45;&gt;3 -->
<g id="edge7" class="edge">
<title>1&#45;&gt;3</title>
<path fill="none" stroke="#000000" d="M268.1026,-86.572C261.9198,-89.74 254.7186,-93.23 248,-96 207.9349,-112.5181 159.4102,-125.9026 129.6274,-133.4069"/>
<polygon fill="#000000" stroke="#000000" points="128.7842,-130.0099 119.919,-135.8116 130.4672,-136.8046 128.7842,-130.0099"/>
<text text-anchor="middle" x="193" y="-123.8" font-family="Times,serif" font-size="14.00" fill="#000000">12!</text>
</g>
<!-- 1&#45;&gt;2 -->
<g id="edge8" class="edge">
<title>1&#45;&gt;2</title>
<path fill="none" stroke="#000000" d="M265.9227,-77.8013C253.2146,-77.6617 235.9542,-77.472 221.4161,-77.3123"/>
<polygon fill="#000000" stroke="#000000" points="221.4531,-73.8126 211.4152,-77.2024 221.3761,-80.8121 221.4531,-73.8126"/>
<text text-anchor="middle" x="238.5" y="-80.8" font-family="Times,serif" font-size="14.00" fill="#000000">10!</text>
</g>
<!-- 0 -->
<g id="node6" class="node">
<title>0</title>
<ellipse fill="none" stroke="#000000" cx="102" cy="-18" rx="18" ry="18"/>
<text text-anchor="middle" x="102" y="-14.3" font-family="Times,serif" font-size="14.00" fill="#000000">0</text>
</g>
<!-- 0&#45;&gt;2 -->
<g id="edge9" class="edge">
<title>0&#45;&gt;2</title>
<path fill="none" stroke="#000000" d="M118.3274,-25.9331C129.51,-31.5984 144.5171,-39.6649 157,-48 161.839,-51.2311 166.8245,-54.958 171.4854,-58.6407"/>
<polygon fill="#000000" stroke="#000000" points="169.4587,-61.5041 179.4228,-65.1053 173.8793,-56.0764 169.4587,-61.5041"/>
<text text-anchor="middle" x="147.5" y="-51.8" font-family="Times,serif" font-size="14.00" fill="#000000">13!</text>
</g>
<!-- 0&#45;&gt;1 -->
<g id="edge10" class="edge">
<title>0&#45;&gt;1</title>
<path fill="none" stroke="#000000" d="M120.1561,-19.056C142.131,-20.7351 180.0385,-24.9263 211,-35 228.5789,-40.7195 232.0615,-44.6356 248,-54 252.1186,-56.4198 256.4125,-59.1184 260.5405,-61.808"/>
<polygon fill="#000000" stroke="#000000" points="258.9181,-64.933 269.1796,-67.5697 262.8021,-59.1093 258.9181,-64.933"/>
<text text-anchor="middle" x="193" y="-38.8" font-family="Times,serif" font-size="14.00" fill="#000000">16!</text>
</g>
</g>
</svg>
